<?xml version="1.0" encoding="UTF-8"?>
<svg id="Layer_2" data-name="Layer 2" xmlns="http://www.w3.org/2000/svg" viewBox="0 0 160.59 224">
  <defs>
    <style>
      .cls-1 {
        fill: #231f20;
      }

      .cls-1, .cls-2, .cls-3, .cls-4 {
        stroke-width: 0px;
      }

      .cls-2 {
        fill: #aaa;
      }

      .cls-5 {
        fill: none;
        stroke: #231f20;
        stroke-width: 2px;
      }

      .cls-5, .cls-6 {
        stroke-miterlimit: 10;
      }

      .cls-3 {
        fill: #8a181a;
      }

      .cls-6 {
        fill: #4e4f4f;
        stroke: #fff;
        stroke-width: .75px;
      }

      .cls-4 {
        fill: #fff;
      }
    </style>
  </defs>
  <g id="Layer_1-2" data-name="Layer 1">
    <g>
      <path class="cls-1" d="M72.62,175.99c0,4.26-2.77,6.38-8.32,6.38-6.99,0-12.58-2.21-16.76-6.63-3.27-3.43-5.13-7.09-5.59-10.97l-1.14-9.37c-.76-5.94-2.15-10.1-4.16-12.46-2.01-2.36-5.26-3.5-9.75-3.43v25.95c0,6.02.04,9.26.11,9.72,0,1.3.53,2.19,1.6,2.69,1.06.5,3.08.74,6.04.74,1.82,0,2.74.34,2.74,1.03,0,.61-.46.91-1.37.91H1.6c-1.07,0-1.6-.27-1.6-.82,0-.61,1.56-.99,4.67-1.12,2.58-.15,4.1-.76,4.56-1.83.23-.53.34-2.13.34-4.8v-58.88c0-3.96-.08-6.31-.23-7.03-.15-.72-.65-1.28-1.48-1.66-1.06-.46-2.77-.69-5.13-.69-1.67,0-2.51-.34-2.51-1.03,0-.53.34-.86,1.03-.97.68-.11,2.51-.17,5.47-.17h22.91c10.64,0,17.9.84,21.77,2.51,3.04,1.29,5.47,3.27,7.3,5.93,1.82,2.66,2.74,5.59,2.74,8.78,0,7.3-3.8,12.69-11.4,16.19-3.35,1.52-8.29,2.66-14.82,3.42l-.11.68c8.28.53,14.29,2.72,18.01,6.55,3.72,3.84,5.96,10.05,6.73,18.64.61,6.84,1.56,11.11,2.85,12.83,1.29,1.71,2.62,2.56,3.99,2.56,1.14,0,1.71-.3,1.71-.91,0-.3-.44-.72-1.31-1.25-.88-.53-1.31-1.29-1.31-2.28,0-2.05,1.14-3.08,3.42-3.08s3.42,1.29,3.42,3.88ZM43.78,118.42c0-9.8-3.88-14.71-11.63-14.71-2.51,0-4.07.84-4.67,2.51-.38,1.06-.57,5.21-.57,12.43v18.92c5.93.08,10.22-1.41,12.88-4.45,2.66-3.04,3.99-7.94,3.99-14.71Z"/>
      <path class="cls-1" d="M160.59,179.98c0,.76-.76,1.14-2.28,1.14h-37.62c-1.07,0-1.6-.32-1.6-.97s.53-.97,1.6-.97h3.88c3.5.08,5.62-.53,6.38-1.83.23-.38.34-2.66.34-6.85v-61.89c-2.46,6.31-5.69,16.34-9.69,30.1l-9.92,34.88c-1.22,4.26-2.21,6.38-2.96,6.38-.84,0-1.6-1.06-2.28-3.19-.23-.68-2.66-7.98-7.3-21.89-1.75-5.24-6.5-19.95-14.25-44.12v59.13c0,3.43.04,5.47.11,6.12.07.65.42,1.2,1.03,1.66,1.14.99,3.08,1.45,5.81,1.37,2.74-.07,4.1.34,4.1,1.26,0,.53-.57.8-1.71.8l-10.15-.46c-1.75-.08-3.76-.03-6.04.15-3.04.2-5.09.3-6.16.3-1.6,0-2.39-.34-2.39-1.03,0-.61.65-.91,1.94-.91,3.04,0,4.86-.04,5.47-.11,2.36-.3,3.72-1.18,4.1-2.63.23-.91.34-2.81.34-5.71v-54.46c0-6.09-.36-9.65-1.08-10.68-.72-1.03-3.44-1.54-8.15-1.54-1.22,0-1.82-.34-1.82-1.03,0-.76.64-1.1,1.93-1.03h24.54c.23,0,.65.05,1.25.14,6.49,21.01,11.98,38.46,16.49,52.34l15.4-52.49h2.4s15.06,0,15.06,0h10.27c1.52,0,2.28.32,2.28.97,0,.72-.46,1.05-1.37.97h-2.62c-3.19-.15-5.34.15-6.44.91-1.1.76-1.65,2.24-1.65,4.45v64.41c0,2.74.71,4.31,2.15,4.73,1.43.42,3.56.59,6.38.51,2.83-.07,4.24.27,4.24,1.03Z"/>
      <g>
        <g>
          <polygon class="cls-3" points="78.28 10.67 58.22 52 99.15 52 78.28 10.67"/>
          <polygon class="cls-2" points="78.68 27.44 39.09 36.82 54.21 52 103.15 52 118.27 36.82 78.68 27.44"/>
        </g>
        <g>
          <path class="cls-6" d="M88.18,58.5c0,74.58-1.85,123.65,39.98,164H29.21c41.82-40.35,39.98-89.42,39.98-164h18.99Z"/>
          <g>
            <path class="cls-4" d="M79.58,78h-1.8c0,12.01,0,23.32-.04,34h1.87c-.03-10.68-.04-21.99-.04-34Z"/>
            <rect class="cls-4" x="77.49" y="60" width="2" height="14"/>
            <path class="cls-4" d="M80.11,160c-.26-12.9-.39-26.81-.46-42h-1.94c-.06,15.19-.19,29.1-.46,42h2.85Z"/>
            <path class="cls-4" d="M77.06,168c-.53,20.17-1.46,37.8-3.08,54h9.39c-1.62-16.2-2.54-33.83-3.08-54h-3.23Z"/>
          </g>
        </g>
      </g>
      <rect class="cls-5" x="9.49" y="1" width="138" height="222"/>
    </g>
  </g>
</svg>